<?xml version="1.0" encoding="utf-8"?>
<svg class="site-logo" width="68" height="33" version="1.1" id="Layer_1" xmlns="http://www.w3.org/2000/svg" xmlns:xlink="http://www.w3.org/1999/xlink" x="0px" y="0px" viewBox="0 0 70 35" style="enable-background:new 0 0 70 35;" xml:space="preserve">
<style type="text/css">.logo1{fill-rule:evenodd;clip-rule:evenodd;fill:#CF0A2C;}</style>
<path id="XMLID_197_" class="logo1" d="M35.4,12.5l3.2-5.5l10.7-0.7l0.4-0.7L39.8,5l2.3-4l18.3,0c5.6,0,9.8,2,8.2,7.9
	c-0.5,1.8-2.8,6.3-9.5,8.2c1.4,0.2,5,1.7,4.4,5.8C62.4,30.2,53,33.6,47.8,33.6l-21.6,0l-1.1-4.2l11.3-0.8l0.4-0.7l-12.3-0.7l-1.3-5
	l17.5-1l0.4-0.7l-31.4-2l1.5-2.6L45,13.8l0.4-0.7L35.4,12.5 M49.6,13.6l3.1,0c2.1,0,4.2-1,5-2.9c0.7-1.8-0.3-3.3-1.6-3.3l-3,0
	L49.6,13.6z M46,19.8l-3.8,6.5h3.6c1.7,0,4.6-0.8,5.5-3.2c0.8-2.2-0.7-3.3-1.8-3.3L46,19.8z M18.7,29.9l-2.2,3.7L1,33.7L2.5,31
	L18.7,29.9z M19.8,1l12.5,0l0.9,3.5L18.3,3.6L19.8,1z M34,7.3l1.4,5.2L14,11.1l1.5-2.6L34,7.3z M23.1,22.3L20.4,27l-15-0.8l1.5-2.6
	L23.1,22.3z"/>
</svg>
